<?xml version="1.0" encoding="utf-8"?>
<!-- Generator: Adobe Illustrator 16.0.3, SVG Export Plug-In . SVG Version: 6.00 Build 0)  -->
<!DOCTYPE svg PUBLIC "-//W3C//DTD SVG 1.1//EN" "http://www.w3.org/Graphics/SVG/1.1/DTD/svg11.dtd">
<svg version="1.1" id="Layer_1" xmlns:svg="http://www.w3.org/2000/svg"
	 xmlns="http://www.w3.org/2000/svg" xmlns:xlink="http://www.w3.org/1999/xlink" x="0px" y="0px" width="400px" height="200px"
	 viewBox="0 0 400 200" enable-background="new 0 0 400 200" xml:space="preserve">
<rect fill="#FFFFFF" width="400" height="200"/>
<rect id="rect3907" x="5.871" y="5" fill="#008855" width="388.733" height="189.914"/>
<path fill="#FFFFFF" d="M304.9,46.874c0.113,9.028-6.932,16.441-15.735,16.559c-8.805,0.117-16.035-7.107-16.149-16.135
	c-0.002-0.141-0.002-0.282,0-0.424c-0.113-9.028,6.932-16.441,15.736-16.558s16.034,7.106,16.148,16.135
	C304.902,46.591,304.902,46.732,304.9,46.874z"/>
<path fill="#FFFFFF" d="M254.396,94.839l0.051,13.157l43.815,0.102V88.851l16.278,28.357l-28.769,17.454v47.506h13.722
	l-0.051-39.878l29.125-17.251l-0.102,34.863l53.697-0.157v-14.126l-39.674,0.103l0.102-33.683l-27.078-45.561l23.447,0.051
	l15.148,25.494l11.365-6.859l-19.502-32.047l-37.828,0.106c-3.771,10.78-11.454,14.941-22.32,13.718l-0.052,27.643L254.396,94.839z"
	/>
<rect x="20.204" y="20.306" fill="#FFFFFF" width="78.373" height="159.506"/>
<path id="path8547_2_" fill="#FFFFFF" d="M160.26,113.987v-6.599h72.6V94.473h-72.6v-6.602
	l-39.171,13.06L160.26,113.987z"/>
</svg>
