<svg xmlns="http://www.w3.org/2000/svg" version="1.1" id="Layer_1" x="0px" y="0px" width="560" height="560" viewBox="0 0 560 560" xml:space="preserve">
<path fill="#00AF6B" d="M 490.00847,426.30353 476.01016,389.202 c -6.29359,-15.40393 -20.29754,-25.90277 -37.80672,-25.90277 h -6.29359 V 43.395188 H 128.10708 V 220.49813 h 39.90082 l 45.50014,-56.705 c 9.10455,-10.49319 23.09721,-17.50371 38.49535,-17.50371 h 97.30516 c 15.39814,0 28.69653,8.39343 35.69568,21.70324 l 28.70782,54.59395 c 1.39983,2.09977 2.0941,4.9051 2.0941,8.40471 0,9.79327 -8.39898,18.19234 -18.20344,18.19234 -7.69907,0 -13.29275,-3.49397 -16.80361,-9.79327 l -25.89123,-49.70013 h -42.00056 l 32.1961,80.50236 9.80446,102.89424 h 83.28993 c 13.30968,0 23.80841,8.40471 28.70782,19.60911 l 9.0989,23.79736 H 333.19921 c -10.48744,0 -19.59763,-7.6935 -20.2919,-18.19798 l -9.80446,-90.30128 -76.99069,159.59924 c -4.20513,9.10464 -14.00395,15.40394 -25.20259,15.40394 h -37.1068 l 94.5055,-195.30657 -29.3908,-73.4975 -28.0079,34.30185 c -6.99351,9.10463 -18.90901,15.39829 -31.50184,15.39829 h -41.295 v 231.00261 l 65.79768,65.09843 H 0 V 0 h 560 v 559.99436 h -63.00367 l -65.09212,-65.09843 v -68.5924 z M 228.20627,64.39286 c 21.70302,0 39.89517,18.203626 39.89517,39.90122 0,21.70324 -18.19215,39.2013 -39.89517,39.2013 -21.70302,0 -39.20655,-17.49806 -39.20655,-39.2013 0,-21.697594 17.50353,-39.90122 39.20655,-39.90122 M 245.70979,509.59994 296.10934,560 h -60.90957 l -65.79768,-65.10407 h 39.19526 c 14.00959,0 27.30798,5.60502 37.11244,14.70401"/>
</svg>